<svg width="158" height="307" viewBox="0 0 158 307" fill="none" xmlns="http://www.w3.org/2000/svg">
<circle r="4.3" transform="matrix(-0.669131 0.743145 0.743145 0.669131 34.0728 60.1585)" fill="#0E7506"/>
<circle r="4.3" transform="matrix(-0.669131 0.743145 0.743145 0.669131 34.0728 6.10135)" fill="#0E7506"/>
<circle r="4.3" transform="matrix(-0.669131 0.743145 0.743145 0.669131 6.07278 34.0728)" fill="#0E7506"/>
<circle r="4.3" transform="matrix(-0.669131 0.743145 0.743145 0.669131 6.07278 60.0728)" fill="#0E7506"/>
<circle r="4.3" transform="matrix(-0.669131 0.743145 0.743145 0.669131 62.7001 33.3571)" fill="#0E7506"/>
<circle r="4.3" transform="matrix(-0.669131 0.743145 0.743145 0.669131 62.7001 6.32852)" fill="#0E7506"/>
<circle r="4.3" transform="matrix(-0.669131 0.743145 0.743145 0.669131 62.7001 60.3856)" fill="#0E7506"/>
<circle r="4.3" transform="matrix(-0.669131 0.743145 0.743145 0.669131 34.0728 33.7442)" fill="#0E7506"/>
<circle r="4.3" transform="matrix(-0.669131 0.743145 0.743145 0.669131 6.07278 6.07278)" fill="#0E7506"/>
<circle r="4.3" transform="matrix(-0.669131 0.743145 0.743145 0.669131 34.0728 141.158)" fill="#0E7506"/>
<circle r="4.3" transform="matrix(-0.669131 0.743145 0.743145 0.669131 34.0728 87.1013)" fill="#0E7506"/>
<circle r="4.3" transform="matrix(-0.669131 0.743145 0.743145 0.669131 6.07278 115.073)" fill="#0E7506"/>
<circle r="4.3" transform="matrix(-0.669131 0.743145 0.743145 0.669131 6.07278 141.073)" fill="#0E7506"/>
<circle r="4.3" transform="matrix(-0.669131 0.743145 0.743145 0.669131 62.7001 114.357)" fill="#0E7506"/>
<circle r="4.3" transform="matrix(-0.669131 0.743145 0.743145 0.669131 62.7001 87.3285)" fill="#0E7506"/>
<circle r="4.3" transform="matrix(-0.669131 0.743145 0.743145 0.669131 62.7001 141.386)" fill="#0E7506"/>
<circle r="4.3" transform="matrix(-0.669131 0.743145 0.743145 0.669131 34.0728 114.744)" fill="#0E7506"/>
<circle r="4.3" transform="matrix(-0.669131 0.743145 0.743145 0.669131 6.07278 87.0728)" fill="#0E7506"/>
<circle r="4.3" transform="matrix(-0.669131 0.743145 0.743145 0.669131 123.073 60.1585)" fill="#0E7506"/>
<circle r="4.3" transform="matrix(-0.669131 0.743145 0.743145 0.669131 123.073 6.10135)" fill="#0E7506"/>
<circle r="4.3" transform="matrix(-0.669131 0.743145 0.743145 0.669131 95.0728 34.0728)" fill="#0E7506"/>
<circle r="4.3" transform="matrix(-0.669131 0.743145 0.743145 0.669131 95.0728 60.0728)" fill="#0E7506"/>
<circle r="4.3" transform="matrix(-0.669131 0.743145 0.743145 0.669131 151.7 33.3571)" fill="#0E7506"/>
<circle r="4.3" transform="matrix(-0.669131 0.743145 0.743145 0.669131 151.7 6.32852)" fill="#0E7506"/>
<circle r="4.3" transform="matrix(-0.669131 0.743145 0.743145 0.669131 151.7 60.3856)" fill="#0E7506"/>
<circle r="4.3" transform="matrix(-0.669131 0.743145 0.743145 0.669131 123.073 33.7442)" fill="#0E7506"/>
<circle r="4.3" transform="matrix(-0.669131 0.743145 0.743145 0.669131 95.0728 6.07278)" fill="#0E7506"/>
<circle r="4.3" transform="matrix(-0.669131 0.743145 0.743145 0.669131 123.073 141.158)" fill="#0E7506"/>
<circle r="4.3" transform="matrix(-0.669131 0.743145 0.743145 0.669131 123.073 87.1013)" fill="#0E7506"/>
<circle r="4.3" transform="matrix(-0.669131 0.743145 0.743145 0.669131 95.0728 115.073)" fill="#0E7506"/>
<circle r="4.3" transform="matrix(-0.669131 0.743145 0.743145 0.669131 95.0728 141.073)" fill="#0E7506"/>
<circle r="4.3" transform="matrix(-0.669131 0.743145 0.743145 0.669131 151.7 114.357)" fill="#0E7506"/>
<circle r="4.3" transform="matrix(-0.669131 0.743145 0.743145 0.669131 151.7 87.3285)" fill="#0E7506"/>
<circle r="4.3" transform="matrix(-0.669131 0.743145 0.743145 0.669131 151.7 141.386)" fill="#0E7506"/>
<circle r="4.3" transform="matrix(-0.669131 0.743145 0.743145 0.669131 123.073 114.744)" fill="#0E7506"/>
<circle r="4.3" transform="matrix(-0.669131 0.743145 0.743145 0.669131 95.0728 87.0728)" fill="#0E7506"/>
<circle r="4.3" transform="matrix(-0.669131 0.743145 0.743145 0.669131 34.0728 219.158)" fill="#0E7506"/>
<circle r="4.3" transform="matrix(-0.669131 0.743145 0.743145 0.669131 34.0728 165.101)" fill="#0E7506"/>
<circle r="4.3" transform="matrix(-0.669131 0.743145 0.743145 0.669131 6.07278 193.073)" fill="#0E7506"/>
<circle r="4.3" transform="matrix(-0.669131 0.743145 0.743145 0.669131 6.07278 219.073)" fill="#0E7506"/>
<circle r="4.3" transform="matrix(-0.669131 0.743145 0.743145 0.669131 62.7001 192.357)" fill="#0E7506"/>
<circle r="4.3" transform="matrix(-0.669131 0.743145 0.743145 0.669131 62.7001 165.329)" fill="#0E7506"/>
<circle r="4.3" transform="matrix(-0.669131 0.743145 0.743145 0.669131 62.7001 219.386)" fill="#0E7506"/>
<circle r="4.3" transform="matrix(-0.669131 0.743145 0.743145 0.669131 34.0728 192.744)" fill="#0E7506"/>
<circle r="4.3" transform="matrix(-0.669131 0.743145 0.743145 0.669131 6.07278 165.073)" fill="#0E7506"/>
<circle r="4.3" transform="matrix(-0.669131 0.743145 0.743145 0.669131 34.0728 300.158)" fill="#0E7506"/>
<circle r="4.3" transform="matrix(-0.669131 0.743145 0.743145 0.669131 34.0728 246.101)" fill="#0E7506"/>
<circle r="4.3" transform="matrix(-0.669131 0.743145 0.743145 0.669131 6.07278 274.073)" fill="#0E7506"/>
<circle r="4.3" transform="matrix(-0.669131 0.743145 0.743145 0.669131 6.07278 300.073)" fill="#0E7506"/>
<circle r="4.3" transform="matrix(-0.669131 0.743145 0.743145 0.669131 62.7001 273.357)" fill="#0E7506"/>
<circle r="4.3" transform="matrix(-0.669131 0.743145 0.743145 0.669131 62.7001 246.329)" fill="#0E7506"/>
<circle r="4.3" transform="matrix(-0.669131 0.743145 0.743145 0.669131 62.7001 300.386)" fill="#0E7506"/>
<circle r="4.3" transform="matrix(-0.669131 0.743145 0.743145 0.669131 34.0728 273.744)" fill="#0E7506"/>
<circle r="4.3" transform="matrix(-0.669131 0.743145 0.743145 0.669131 6.07278 246.073)" fill="#0E7506"/>
<circle r="4.3" transform="matrix(-0.669131 0.743145 0.743145 0.669131 123.073 219.158)" fill="#0E7506"/>
<circle r="4.3" transform="matrix(-0.669131 0.743145 0.743145 0.669131 123.073 165.101)" fill="#0E7506"/>
<circle r="4.3" transform="matrix(-0.669131 0.743145 0.743145 0.669131 95.0728 193.073)" fill="#0E7506"/>
<circle r="4.3" transform="matrix(-0.669131 0.743145 0.743145 0.669131 95.0728 219.073)" fill="#0E7506"/>
<circle r="4.3" transform="matrix(-0.669131 0.743145 0.743145 0.669131 151.7 192.357)" fill="#0E7506"/>
<circle r="4.3" transform="matrix(-0.669131 0.743145 0.743145 0.669131 151.7 165.329)" fill="#0E7506"/>
<circle r="4.3" transform="matrix(-0.669131 0.743145 0.743145 0.669131 151.7 219.386)" fill="#0E7506"/>
<circle r="4.3" transform="matrix(-0.669131 0.743145 0.743145 0.669131 123.073 192.744)" fill="#0E7506"/>
<circle r="4.3" transform="matrix(-0.669131 0.743145 0.743145 0.669131 95.0728 165.073)" fill="#0E7506"/>
<circle r="4.3" transform="matrix(-0.669131 0.743145 0.743145 0.669131 123.073 300.158)" fill="#0E7506"/>
<circle r="4.3" transform="matrix(-0.669131 0.743145 0.743145 0.669131 123.073 246.101)" fill="#0E7506"/>
<circle r="4.3" transform="matrix(-0.669131 0.743145 0.743145 0.669131 95.0728 274.073)" fill="#0E7506"/>
<circle r="4.3" transform="matrix(-0.669131 0.743145 0.743145 0.669131 95.0728 300.073)" fill="#0E7506"/>
<circle r="4.3" transform="matrix(-0.669131 0.743145 0.743145 0.669131 151.7 273.357)" fill="#0E7506"/>
<circle r="4.3" transform="matrix(-0.669131 0.743145 0.743145 0.669131 151.7 246.329)" fill="#0E7506"/>
<circle r="4.3" transform="matrix(-0.669131 0.743145 0.743145 0.669131 151.7 300.386)" fill="#0E7506"/>
<circle r="4.3" transform="matrix(-0.669131 0.743145 0.743145 0.669131 123.073 273.744)" fill="#0E7506"/>
<circle r="4.3" transform="matrix(-0.669131 0.743145 0.743145 0.669131 95.0728 246.073)" fill="#0E7506"/>
</svg>
